{
  "title": "Tokyo Story 1953 720p BRRip x264 MP4 AAC-CC",
  "uid": 8776540,
  "size": 2680663699,
  "categoryP": "video",
  "categoryS": "hd___movies",
  "magnet": "?xt=urn:btih:11108b9a3d974e0e622f275373add20c16b1fe69&amp;dn=Tokyo+Story+1953+720p+BRRip+x264+MP4+AAC-CC&amp;tr=udp%3A%2F%2Ftracker.openbittorrent.com%3A80&amp;tr=udp%3A%2F%2Fopen.demonii.com%3A1337&amp;tr=udp%3A%2F%2Ftracker.coppersurfer.tk%3A6969&amp;tr=udp%3A%2F%2Fexodus.desync.com%3A6969",
  "seeders": 53,
  "leechers": 10,
  "uploader": "Caveman44",
  "files": -1,
  "time": 1375572417,
  "description": " &lt;a href=&quot;http://www.imdb.com/title/tt0046438/&quot; rel=&quot;nofollow&quot; target=&quot;_NEW&quot;&gt;http://www.imdb.com/title/tt0046438/&lt;/a&gt;\n\nIMDb title: Tokyo monogatari \n\nSource: Tokyo.Story.1953.720p.BluRay.x264-CiNEFiLE\n\nSubs: Arabic, Brazilian, Dutch, English, Farsi-Persian, French, German, Italian, Portuguese, Romanian, Spanish, Turkish, Vietnamese.\n\nSample and Screens included.\n\nGeneral\nComplete name                            : Tokyo Story 1953 720p BRRip x264 MP4 AAC-CC.mp4\nFormat                                   : MPEG-4\nFormat profile                           : Base Media\nCodec ID                                 : isom\nFile size                                : 2.47 GiB\nDuration                                 : 2h 15mn\nOverall bit rate mode                    : Variable\nOverall bit rate                         : 2 600 Kbps\nEncoded date                             : UTC 2013-07-06 10:31:12\nTagged date                              : UTC 2013-07-06 10:31:12\nWriting application                      : Yamb 2.1.0.0 \n\nVideo\nID                                       : 1\nFormat                                   : AVC\nFormat/Info                              : Advanced Video Codec\nFormat profile                           : &lt;a class=&quot;__cf_email__&quot; href=&quot;/cdn-cgi/l/email-protection&quot; data-cfemail=&quot;0149686669414d352f30&quot;&gt;[email&amp;#160;protected]&lt;/a&gt;&lt;script cf-hash='f9e31' type=&quot;text/javascript&quot;&gt;\n/* &lt;![CDATA[ */!function(){try{var t=&quot;currentScript&quot;in document?document.currentScript:function(){for(var t=document.getElementsByTagName(&quot;script&quot;),e=t.length;e--;)if(t[e].getAttribute(&quot;cf-hash&quot;))return t[e]}();if(t&amp;&amp;t.previousSibling){var e,r,n,i,c=t.previousSibling,a=c.getAttribute(&quot;data-cfemail&quot;);if(a){for(e=&quot;&quot;,r=parseInt(a.substr(0,2),16),n=2;a.length-n;n+=2)i=parseInt(a.substr(n,2),16)^r,e+=String.fromCharCode(i);e=document.createTextNode(e),c.parentNode.replaceChild(e,c)}}}catch(u){}}();/* ]]&gt; */&lt;/script&gt;\nFormat settings, CABAC                   : Yes\nFormat settings, ReFrames                : 5 frames\nCodec ID                                 : avc1\nCodec ID/Info                            : Advanced Video Coding\nDuration                                 : 2h 15mn\nBit rate                                 : 2 433 Kbps\nMaximum bit rate                         : 11.2 Mbps\nWidth                                    : 960 pixels\nHeight                                   : 720 pixels\nDisplay aspect ratio                     : 4:3\nFrame rate mode                          : Variable\nFrame rate                               : 23.976 fps\nMinimum frame rate                       : 23.810 fps\nMaximum frame rate                       : 24.390 fps\nColor space                              : YUV\nChroma subsampling                       : 4:2:0\nBit depth                                : 8 bits\nScan type                                : Progressive\nBits/(Pixel*Frame)                       : 0.147\nStream size                              : 2.31 GiB (94%)\nWriting library                          : x264 core 112\nEncoding settings                        : cabac=1 // deblock=1:0:0 / analyse=0x3:0x113 / me=hex / subme=7 / psy=1 / psy_rd=1.00:0.00 // me_range=16 / chroma_me=1 / trellis=1 / 8x8dct=1 / cqm=0 / deadzone=21,11 / fast_pskip=1 / chroma_qp_offset=-2 / threads=3 / sliced_threads=0 / nr=0 / decimate=1 / interlaced=0 / constrained_intra=0 / bframes=5 / b_pyramid=2 / b_adapt=2 / b_bias=0 / direct=1 / weightb=1 / open_gop=0 / weightp=2 / keyint=240 / keyint_min=23 / scenecut=40 / intra_refresh=0 / rc_lookahead=50 / rc=abr / mbtree=1 / bitrate=2433 / ratetol=1.0 / qcomp=0.60 / qpmin=3 / qpmax=51 / qpstep=4 / ip_ratio=1.40 / aq=1:1.00\nEncoded date                             : UTC 2013-07-06 22:30:39\nTagged date                              : UTC 2013-07-06 10:35:29\nColor primaries                          : BT.709\nTransfer characteristics                 : BT.709\nMatrix coefficients                      : BT.709\n\nAudio\nID                                       : 2\nFormat                                   : AAC\nFormat/Info                              : Advanced Audio Codec\nFormat profile                           : LC\nCodec ID                                 : 40\nDuration                                 : 2h 15mn\nBit rate mode                            : Variable\nBit rate                                 : 164 Kbps\nMaximum bit rate                         : 203 Kbps\nChannel(s)                               : 2 channels\nChannel positions                        : Front: L R\nSampling rate                            : 48.0 KHz\nCompression mode                         : Lossy\nDelay relative to video                  : 83ms\nStream size                              : 159 MiB (6%)\nLanguage                                 : Japanese\nEncoded date                             : UTC 2013-07-06 10:34:42\nTagged date                              : UTC 2013-07-06 10:35:29\n\nEnjoy...\n\nRequested by DreamExtractor \n\nComing soon: The Tin Drum, Strangers on a Train, The Last King of Scotland, The Verdict and more.",
  "parsed": {
    "xt": "urn:btih:11108b9a3d974e0e622f275373add20c16b1fe69",
    "dn": "Tokyo Story 1953 720p BRRip x264 MP4 AAC-CC",
    "tr": [
      "udp://exodus.desync.com:6969",
      "udp://open.demonii.com:1337",
      "udp://tracker.coppersurfer.tk:6969",
      "udp://tracker.openbittorrent.com:80"
    ],
    "infoHash": "11108b9a3d974e0e622f275373add20c16b1fe69",
    "infoHashBuffer": {
      "type": "Buffer",
      "data": [
        17,
        16,
        139,
        154,
        61,
        151,
        78,
        14,
        98,
        47,
        39,
        83,
        115,
        173,
        210,
        12,
        22,
        177,
        254,
        105
      ]
    },
    "name": "Tokyo Story 1953 720p BRRip x264 MP4 AAC-CC",
    "announce": [
      "udp://exodus.desync.com:6969",
      "udp://open.demonii.com:1337",
      "udp://tracker.coppersurfer.tk:6969",
      "udp://tracker.openbittorrent.com:80"
    ],
    "urlList": []
  },
  "previous": 63,
  "peers": 32,
  "last_updated": "2016-12-24T17:25:21.418Z"
}